# xmcd CD database file
#
# Track frame offsets:
#	150
#	12010
#	24411
#	43025
#	56808
#	75026
#	87545
#	103755
#	112353
#	124588
#	143833
#	173921
#	190154
#	206379
#
# Disc length: 2992 seconds
#
# Revision: 0
# Processed by: cddbd v1.4PL0 Copyright (c) Steve Scherf et al.
# Submitted via: CDex 1.50Beta7
#
DISCID=b60bae0e
DTITLE=Kumpani - Raj tulaku 1
DYEAR=2001
DGENRE=Country
TTITLE0=Raj tulaku
TTITLE1=Rudy Bill(Ruty suty)
TTITLE2=Pisen domorodce(Lka ukulele tmou)
TTITLE3=Manila(Cernoska)
TTITLE4=Montgomery
TTITLE5=Mokry kavalir
TTITLE6=Muj wigwam
TTITLE7=Podzim
TTITLE8=Stara pacificka
TTITLE9=Japonecka
TTITLE10=Pribeh bruslare
TTITLE11=Malajka
TTITLE12=Kapkami si dest
TTITLE13=Sanghaj
EXTD=YEAR: 2001
EXTT0=
EXTT1=
EXTT2=
EXTT3=
EXTT4=
EXTT5=
EXTT6=
EXTT7=
EXTT8=
EXTT9=
EXTT10=
EXTT11=
EXTT12=
EXTT13=
PLAYORDER=
